<svg xmlns="http://www.w3.org/2000/svg" version="1.1" xmlns:xlink="http://www.w3.org/1999/xlink" xmlns:svgjs="http://svgjs.dev/svgjs" width="100%" height="100%" viewBox="0 0 1000 600"><rect width="1000" height="600" x="0" y="0" fill="#232a31"/><g><rect width="333.3333333333333" height="333.3333333333333" rx="13.333333333333334" ry="13.333333333333334" y="131.31737890446172" fill="#0d0e10" transform="matrix(1.1457887876988868,0,0,1.1457887876988868,0,-41.42677843428987)" x="109.09517669677734"/><path d="M305.9537851692922 247.9624064382359L305.9537851692922 247.9624064382359L305.9537851692922 284.06823272023934Q306.39473276037984 285.365137399909 285.7998864472256 293.56157497542125L285.7998864472256 293.56157497542125Q285.7998864472256 297.47822710802365 288.39369580656495 306.5565598657113Q290.9875051659043 315.63489262339897 295.18947632803395 325.465430095295L295.18947632803395 325.465430095295Q298.0167285297139 332.0537058680169 301.8036901943493 337.73414836497Q305.59065185898464 343.44052895551647 309.9223134890814 346.91623349703116Q314.253975119178 350.3659999449525 318.43000818771435 350.3659999449525L318.43000818771435 350.3659999449525L318.43000818771435 355.9426900675321Q301.10336166732765 366.9663798447242 296.3826286333301 366.9663798447242L296.3826286333301 366.9663798447242Q294.17789067789164 366.9663798447242 291.2728241954316 362.9978515249351Q288.34181961937816 359.02932320514583 285.099557920204 352.5707379003909Q281.8832343146232 346.0862145020426 278.770663083416 338.3826007048049Q275.6580918522088 330.67898690756704 273.16803486724314 323.10506357829627Q270.65203978868396 315.5311402490254 269.14763036026716 309.38381206739115Q267.64322093185035 303.2364838857569 267.64322093185035 299.94234599939597L267.64322093185035 299.94234599939597L266.73538765608157 300.30547930970346L266.73538765608157 338.2529102368378Q266.73538765608157 345.07462885190023 268.18792089731164 348.08344770873396Q269.6404541385416 351.09226656556757 274.38712526613256 351.09226656556757L274.38712526613256 351.09226656556757L274.38712526613256 356.8505233433008L236.10249912228414 372.98401755839143L233.09368026545053 366.9663798447242Q237.19189905320664 366.9663798447242 240.9269845306553 362.141894436353L240.9269845306553 362.141894436353Q244.2989366977964 357.57678996391587 244.2989366977964 347.90188105358015L244.2989366977964 347.90188105358015L244.2989366977964 251.15279195022327Q244.2989366977964 239.76596886272364 236.64719908774538 238.2874975279002L236.64719908774538 238.2874975279002L236.64719908774538 234.18927874014406L255.53013122373568 223.52872227325946Q259.6283500114918 225.26657454401678 263.18186883378667 229.07947430224561Q266.73538765608157 232.9183121540678 266.73538765608157 236.030883385275L266.73538765608157 236.030883385275L266.73538765608157 291.56434176872995Q270.0295255424425 291.56434176872995 273.9461776750449 290.08587043390656Q277.86282980764724 288.6333371926765 280.69008200932717 286.4026611436447Q283.517334211007 284.17198509461286 283.517334211007 281.96724713917445L283.517334211007 281.96724713917445L283.517334211007 257.7151296293518Q283.517334211007 250.78965863991576 282.0129247825902 247.83271597026894Q280.50851535417337 244.8757733006221 275.865596600956 244.8757733006221L275.865596600956 244.8757733006221L275.865596600956 239.0397022421086L314.1502227448044 222.98402230779817L317.1590416016381 229.00166002146543Q313.06082281388194 229.00166002146543 309.32573733643335 233.82614542983657L309.32573733643335 233.82614542983657Q305.9537851692922 238.39124990227378 305.9537851692922 247.9624064382359Z " fill="white" transform="matrix(1.1457887876988868,0,0,1.1457887876988868,0,-41.42677843428987)"/><path d="M598.6219484688528 247.9624064382359L598.6219484688528 247.9624064382359L598.6219484688528 284.06823272023934Q599.0628960599405 285.365137399909 578.4680497467862 293.56157497542125L578.4680497467862 293.56157497542125Q578.4680497467862 297.47822710802365 581.0618591061256 306.5565598657113Q583.6556684654649 315.63489262339897 587.8576396275946 325.465430095295L587.8576396275946 325.465430095295Q590.6848918292744 332.0537058680169 594.4718534939099 337.73414836497Q598.2588151585453 343.44052895551647 602.5904767886419 346.91623349703116Q606.9221384187387 350.3659999449525 611.098171487275 350.3659999449525L611.098171487275 350.3659999449525L611.098171487275 355.9426900675321Q593.7715249668883 366.9663798447242 589.0507919328907 366.9663798447242L589.0507919328907 366.9663798447242Q586.8460539774522 366.9663798447242 583.9409874949922 362.9978515249351Q581.0099829189387 359.02932320514583 577.7677212197646 352.5707379003909Q574.5513976141838 346.0862145020426 571.4388263829767 338.3826007048049Q568.3262551517695 330.67898690756704 565.8361981668037 323.10506357829627Q563.3202030882446 315.5311402490254 561.8157936598277 309.38381206739115Q560.311384231411 303.2364838857569 560.311384231411 299.94234599939597L560.311384231411 299.94234599939597L559.4035509556422 300.30547930970346L559.4035509556422 338.2529102368378Q559.4035509556422 345.07462885190023 560.8560841968722 348.08344770873396Q562.3086174381021 351.09226656556757 567.0552885656932 351.09226656556757L567.0552885656932 351.09226656556757L567.0552885656932 356.8505233433008L528.7706624218447 372.98401755839143L525.7618435650111 366.9663798447242Q529.8600623527673 366.9663798447242 533.5951478302159 362.141894436353L533.5951478302159 362.141894436353Q536.9670999973571 357.57678996391587 536.9670999973571 347.90188105358015L536.9670999973571 347.90188105358015L536.9670999973571 251.15279195022327Q536.9670999973571 239.76596886272364 529.315362387306 238.2874975279002L529.315362387306 238.2874975279002L529.315362387306 234.18927874014406L548.1982945232962 223.52872227325946Q552.2965133110524 225.26657454401678 555.8500321333473 229.07947430224561Q559.4035509556422 232.9183121540678 559.4035509556422 236.030883385275L559.4035509556422 236.030883385275L559.4035509556422 291.56434176872995Q562.6976888420031 291.56434176872995 566.6143409746055 290.08587043390656Q570.5309931072079 288.6333371926765 573.3582453088877 286.4026611436447Q576.1854975105675 284.17198509461286 576.1854975105675 281.96724713917445L576.1854975105675 281.96724713917445L576.1854975105675 257.7151296293518Q576.1854975105675 250.78965863991576 574.6810880821508 247.83271597026894Q573.1766786537339 244.8757733006221 568.5337599005165 244.8757733006221L568.5337599005165 244.8757733006221L568.5337599005165 239.0397022421086L606.8183860443651 222.98402230779817L609.8272049011987 229.00166002146543Q605.7289861134425 229.00166002146543 601.9939006359939 233.82614542983657L601.9939006359939 233.82614542983657Q598.6219484688528 238.39124990227378 598.6219484688528 247.9624064382359ZM616.3895425803272 354.28265207755487L616.3895425803272 354.28265207755487L616.3895425803272 261.8133484171079Q616.3895425803272 256.807296353583 614.7035664967566 254.68037267892475Q613.0175904131861 252.5275109106731 608.9193716254299 252.5275109106731L608.9193716254299 252.5275109106731L608.9193716254299 247.23613981762088Q621.0583994271379 240.85536879364616 631.9005225491763 234.88960726716567Q642.7426456712147 228.89790764709187 652.2359879263967 223.3471556181057L652.2359879263967 223.3471556181057L655.2448067832303 229.36479333177294Q653.3253878573191 230.27262660754167 650.0053118773649 232.97018834125458Q646.6592978038171 235.64181198137408 644.4026836611919 238.46906418305394L644.4026836611919 238.46906418305394Q638.8259935386124 245.49828754686354 638.8259935386124 254.52474411736438L638.8259935386124 254.52474411736438L638.8259935386124 270.39885739652107Q658.1498732656903 260.5423818310316 661.1586921225239 260.5423818310316L661.1586921225239 260.5423818310316Q665.1790966294999 260.5423818310316 669.0438725749154 264.01808637254635Q672.9345866139245 267.4678528204676 675.476519786077 272.9407905686736Q678.0443910518229 278.4137283168796 678.0443910518229 284.4313660305468L678.0443910518229 284.4313660305468L678.0443910518229 339.3423101677604Q678.0443910518229 349.7434856987111 687.148661903104 351.45539987587506L687.148661903104 351.45539987587506L687.148661903104 355.5795567572245L666.8131965258837 366.9663798447242Q662.7149777381276 365.33227994834044 659.1614589158327 361.49344209651827Q655.6079400935378 357.654604244696 655.6079400935378 354.28265207755487L655.6079400935378 354.28265207755487L655.6079400935378 300.1239126545497Q655.6079400935378 281.7856804840207 648.8640357592556 279.3215615926483L648.8640357592556 279.3215615926483Q645.7514645280484 278.2321616617258 638.8259935386124 278.2321616617258L638.8259935386124 278.2321616617258L638.8259935386124 339.3423101677604Q638.8259935386124 350.65131897447986 646.4777311486633 352.18166649649004L646.4777311486633 352.18166649649004L646.4777311486633 356.3058233778396L627.6207371062665 366.9663798447242Q623.4965802249169 365.33227994834044 619.9430614026221 361.49344209651827Q616.3895425803272 357.654604244696 616.3895425803272 354.28265207755487ZM754.5358290587396 285.1576326511618L754.5358290587396 285.1576326511618L754.5358290587396 338.0713435816841Q754.5358290587396 344.89306219674654 756.7924432013649 347.64250011764625Q759.0231192503967 350.3659999449525 763.6660380036141 351.45539987587506L763.6660380036141 351.45539987587506L763.6660380036141 355.5795567572245L743.3305726263939 366.9663798447242Q739.2323538386377 365.33227994834044 735.6788350163428 361.49344209651827Q732.1253161940479 357.654604244696 732.1253161940479 354.4642187327087L732.1253161940479 354.4642187327087L708.7810319599939 366.9663798447242Q708.4957129304667 366.7848131895704 708.0807034329723 366.55137034722986Q707.6656939354781 366.3179275048893 707.1209939700168 365.95479419458184L707.1209939700168 365.95479419458184Q705.9537797583141 365.33227994834044 703.2562180246011 363.127541992902Q700.5586562908883 360.948742131057 698.4576707098234 358.58837561405824L698.4576707098234 358.58837561405824Q692.9069186808373 352.4669855260173 692.9069186808373 344.52992888643905L692.9069186808373 344.52992888643905L692.9069186808373 313.8970403526416Q692.9069186808373 311.89980714595026 697.4979612468679 309.0725549442704Q702.1149419064919 306.2453027425906 708.8588462407741 303.41805054091066Q715.6027505750563 300.59079833923084 721.9835215990311 298.5676270389461L721.9835215990311 298.5676270389461L731.9437495388942 295.48099390133234Q731.9437495388942 288.3739562567426 729.557444928302 284.22386128179966Q727.1970784113032 280.0737663068567 721.3091311656029 278.2321616617258Q715.4211839199027 276.4164951101883 704.6568750786444 276.4164951101883L704.6568750786444 276.4164951101883L704.6568750786444 270.76199070682856Q733.3962827801241 260.5423818310316 737.1313682575728 260.5423818310316L737.1313682575728 260.5423818310316Q741.3333394197025 260.5423818310316 745.3018677394916 264.32934349566705Q749.2444579656874 268.11630516030243 751.8901435122136 273.77080956366217Q754.5358290587396 279.4253139670219 754.5358290587396 285.1576326511618ZM715.3433696391224 325.6469967504487L715.3433696391224 337.8897769265303Q715.3433696391224 342.6105099605279 718.2484361215825 345.7230811917351L718.2484361215825 345.7230811917351Q721.179440697636 348.80971432934894 724.7329595199308 348.78377623575557Q728.2864783422257 348.7319000485687 732.1253161940479 346.0862145020426L732.1253161940479 346.0862145020426L732.1253161940479 303.85899813199836Q727.4564593472371 305.4930980283821 725.1479690174251 306.63437414649144Q722.8135405940197 307.77565026460076 720.1678550474936 310.1619548751929L720.1678550474936 310.1619548751929Q715.3433696391224 314.7270593476302 715.3433696391224 325.6469967504487L715.3433696391224 325.6469967504487Z " fill="white" transform="matrix(1.1457887876988868,0,0,1.1457887876988868,0,-41.42677843428987)"/></g></svg>